<mxfile host="app.diagrams.net" modified="2024-03-17T06:53:18.286Z" agent="Mozilla/5.0 (Macintosh; Intel Mac OS X 10.15; rv:123.0) Gecko/20100101 Firefox/123.0" etag="3z2pnhkivtlFjcZsonYe" version="24.0.7" type="github">
  <diagram name="Page-1" id="6e9QKgI03reqmt4rfAvy">
    <mxGraphModel dx="1242" dy="735" grid="1" gridSize="10" guides="1" tooltips="1" connect="1" arrows="1" fold="1" page="1" pageScale="1" pageWidth="850" pageHeight="1100" math="0" shadow="0">
      <root>
        <mxCell id="0" />
        <mxCell id="1" parent="0" />
        <mxCell id="xoiJE4jO3vRNjwVfq7wX-1" value="Client" style="rounded=0;whiteSpace=wrap;html=1;" vertex="1" parent="1">
          <mxGeometry x="160" y="160" width="120" height="60" as="geometry" />
        </mxCell>
        <mxCell id="xoiJE4jO3vRNjwVfq7wX-2" value="Tiny URL Service" style="rounded=0;whiteSpace=wrap;html=1;" vertex="1" parent="1">
          <mxGeometry x="480" y="320" width="120" height="60" as="geometry" />
        </mxCell>
        <mxCell id="xoiJE4jO3vRNjwVfq7wX-3" value="" style="endArrow=none;html=1;rounded=0;" edge="1" parent="1">
          <mxGeometry width="50" height="50" relative="1" as="geometry">
            <mxPoint x="220" y="680" as="sourcePoint" />
            <mxPoint x="219.5" y="220" as="targetPoint" />
          </mxGeometry>
        </mxCell>
        <mxCell id="xoiJE4jO3vRNjwVfq7wX-4" value="" style="endArrow=classic;html=1;rounded=0;exitX=1;exitY=0.5;exitDx=0;exitDy=0;entryX=0;entryY=0.5;entryDx=0;entryDy=0;" edge="1" parent="1" source="xoiJE4jO3vRNjwVfq7wX-1" target="xoiJE4jO3vRNjwVfq7wX-2">
          <mxGeometry width="50" height="50" relative="1" as="geometry">
            <mxPoint x="400" y="410" as="sourcePoint" />
            <mxPoint x="450" y="360" as="targetPoint" />
          </mxGeometry>
        </mxCell>
        <mxCell id="xoiJE4jO3vRNjwVfq7wX-5" value="Short URL" style="text;html=1;align=center;verticalAlign=middle;whiteSpace=wrap;rounded=0;rotation=30;" vertex="1" parent="1">
          <mxGeometry x="340" y="240" width="90" height="30" as="geometry" />
        </mxCell>
        <mxCell id="xoiJE4jO3vRNjwVfq7wX-7" value="" style="endArrow=classic;html=1;rounded=0;" edge="1" parent="1">
          <mxGeometry width="50" height="50" relative="1" as="geometry">
            <mxPoint x="480" y="350" as="sourcePoint" />
            <mxPoint x="220" y="520" as="targetPoint" />
          </mxGeometry>
        </mxCell>
        <mxCell id="xoiJE4jO3vRNjwVfq7wX-8" value="Original URL &amp;amp; HTTP Status Code of 301 / 302" style="text;html=1;align=center;verticalAlign=middle;whiteSpace=wrap;rounded=0;rotation=-35;" vertex="1" parent="1">
          <mxGeometry x="230" y="430" width="270" height="30" as="geometry" />
        </mxCell>
        <mxCell id="xoiJE4jO3vRNjwVfq7wX-9" value="Original URL Server" style="rounded=0;whiteSpace=wrap;html=1;" vertex="1" parent="1">
          <mxGeometry x="480" y="640" width="120" height="60" as="geometry" />
        </mxCell>
        <mxCell id="xoiJE4jO3vRNjwVfq7wX-10" value="" style="endArrow=classic;html=1;rounded=0;entryX=0;entryY=0.5;entryDx=0;entryDy=0;" edge="1" parent="1" target="xoiJE4jO3vRNjwVfq7wX-9">
          <mxGeometry width="50" height="50" relative="1" as="geometry">
            <mxPoint x="220" y="522" as="sourcePoint" />
            <mxPoint x="300" y="579" as="targetPoint" />
          </mxGeometry>
        </mxCell>
        <mxCell id="xoiJE4jO3vRNjwVfq7wX-11" value="Visit Original URL Server" style="text;html=1;align=center;verticalAlign=middle;whiteSpace=wrap;rounded=0;rotation=30;" vertex="1" parent="1">
          <mxGeometry x="270" y="590" width="140" height="30" as="geometry" />
        </mxCell>
      </root>
    </mxGraphModel>
  </diagram>
</mxfile>
